<?xml version="1.0" encoding="UTF-8" standalone="no"?>
<!-- Created with Inkscape (http://www.inkscape.org/) -->

<svg
   xmlns:dc="http://purl.org/dc/elements/1.1/"
   xmlns:cc="http://creativecommons.org/ns#"
   xmlns:rdf="http://www.w3.org/1999/02/22-rdf-syntax-ns#"
   xmlns:svg="http://www.w3.org/2000/svg"
   xmlns="http://www.w3.org/2000/svg"
   xmlns:sodipodi="http://sodipodi.sourceforge.net/DTD/sodipodi-0.dtd"
   xmlns:inkscape="http://www.inkscape.org/namespaces/inkscape"
   version="1.1"
   id="svg10"
   width="2000"
   height="1600"
   viewBox="0 0 2000 1600"
   sodipodi:docname="AB-logo.svg"
   inkscape:version="0.92.1 r15371">
  <metadata
     id="metadata16">
    <rdf:RDF>
      <cc:Work
         rdf:about="">
        <dc:format>image/svg+xml</dc:format>
        <dc:type
           rdf:resource="http://purl.org/dc/dcmitype/StillImage" />
        <dc:title />
      </cc:Work>
    </rdf:RDF>
  </metadata>
  <defs
     id="defs14" />
  <sodipodi:namedview
     pagecolor="#ffffff"
     bordercolor="#666666"
     borderopacity="1"
     objecttolerance="10"
     gridtolerance="10"
     guidetolerance="10"
     inkscape:pageopacity="0"
     inkscape:pageshadow="2"
     inkscape:window-width="1366"
     inkscape:window-height="705"
     id="namedview12"
     showgrid="false"
     inkscape:zoom="0.26420062"
     inkscape:cx="1044.694"
     inkscape:cy="717.97534"
     inkscape:window-x="-8"
     inkscape:window-y="-8"
     inkscape:window-maximized="1"
     inkscape:current-layer="svg10"
     inkscape:snap-bbox="true"
     inkscape:lockguides="false" />
  <g
     id="g3690">
    <path
       style="fill:#fcfcfc"
       d="M 0,800 V 0 h 1000 1000 v 800 800 H 1000 0 Z"
       id="path3694"
       inkscape:connector-curvature="0" />
    <path
       style="fill:#000000"
       d="M 82.739932,1598.4194 C 43.666658,1591.3452 13.507261,1563.1175 2.6937568,1523.5 l -2.18358229,-8 L 0.24765297,804 C 0.01426516,171.45984 0.15364253,91.521829 1.5035699,83.685789 5.1628019,62.44473 14.076729,44.987577 28.980362,29.874878 41.879001,16.795299 58.386558,7.412606 76.725681,2.7370235 L 85.5,0.5 h 914.5 914.5 l 8.7743,2.2370235 c 36.782,9.3776115 63.808,36.3054165 74.0319,73.7629765 l 2.1836,8 0.2625,711.5 c 0.2334,632.5402 0.094,712.4782 -1.2559,720.3142 -3.6236,21.0346 -13.0566,39.3365 -27.9511,54.2311 -12.2163,12.2162 -29.3336,22.0138 -46.5888,26.6665 l -8.4565,2.2802 -912.5,0.1662 c -779.84375,0.142 -913.628133,-0.038 -920.260068,-1.2388 z M 1799.5,800 V 200.5 H 1000 200.5 L 200.24441,799 c -0.14058,329.175 -0.0421,599.0628 0.21885,599.7506 0.37925,0.9997 160.85362,1.2004 799.75564,1 L 1799.5,1399.5 Z M 318.41115,1194.629 c -0.55398,-1.4436 269.996,-787.20973 271.79225,-789.37408 1.51722,-1.82814 121.66563,-1.83293 123.43523,-0.005 1.78001,1.83877 272.54176,787.83748 271.93756,789.41208 -0.42151,1.0984 -12.25323,1.3379 -66.09583,1.3379 h -65.58241 l -1.34517,-3.25 c -0.73984,-1.7875 -18.08816,-50.95 -38.55183,-109.25 -20.46367,-58.3 -37.62717,-106.78925 -38.1411,-107.75391 -0.8841,-1.65947 -7.56099,-1.74026 -123.96751,-1.5 -108.5351,0.22401 -123.13271,0.43195 -123.8785,1.76466 -0.46498,0.8309 -17.97956,50.30205 -38.92129,109.93585 -20.94173,59.6338 -38.64213,108.7845 -39.33421,109.2239 -0.69209,0.4394 -30.40996,0.8058 -66.03972,0.8142 -53.96121,0.013 -64.86926,-0.2137 -65.30747,-1.3557 z M 729.41219,845.14209 c 0.49587,-0.80234 -73.72929,-216.79252 -74.90488,-217.96811 -0.29735,-0.29736 -0.96856,-0.11273 -1.49157,0.41028 -1.57943,1.57943 -80.11163,216.45156 -79.48187,217.47054 0.74194,1.20049 155.13688,1.28695 155.87832,0.0873 z M 1107.4628,1194.75 c -0.2609,-0.6875 -0.3593,-178.775 -0.2186,-395.75 L 1107.5,404.5 h 160 c 179.7947,0 171.4742,-0.30883 202,7.49766 39.8483,10.19059 72.8293,28.69998 101.4326,56.92541 29.6122,29.22096 47.4038,64.81797 53.6557,107.35318 2.5494,17.3448 1.5214,51.81243 -2.0498,68.72375 -8.3211,39.4048 -27.0044,72.56232 -56.4422,100.16874 -10.2849,9.64501 -28.6106,23.6221 -40.4871,30.8796 -4.7351,2.89351 -8.6092,5.63569 -8.6092,6.09373 0,0.45803 3.1759,2.43215 7.0576,4.38692 37.8788,19.07548 69.0162,46.16187 90.207,78.47101 20.8654,31.81309 30.7354,66.49476 30.7354,108 0,35.9867 -7.2184,67.2734 -22.9563,99.5 -22.0946,45.2432 -54.4235,79.6552 -92.9576,98.9477 -24.3058,12.1689 -60.2093,20.5783 -100.2735,23.4863 -22.5751,1.6385 -320.7229,1.4678 -321.3498,-0.184 z m 345.0502,-129.4179 c 18.6217,-4.2952 31.3154,-10.9481 42.6172,-22.3364 12.944,-13.0429 19.6373,-29.5196 22.0635,-54.31305 3.4548,-35.30525 -7.8511,-70.89941 -31.9935,-100.7237 -13.1958,-16.30153 -33.1908,-29.27384 -52.7002,-34.19071 l -9,-2.26824 h -95.5 -95.5 l -0.2576,107 c -0.1417,58.85 -0.037,107.5782 0.232,108.2848 0.3955,1.038 20.7067,1.2215 105.7576,0.9555 102.4218,-0.3205 105.5117,-0.3856 114.281,-2.4082 z m -32.9155,-344.58972 c 14.2664,-3.18434 30.5021,-12.60135 45.0154,-26.10972 19.3732,-18.03189 31.0288,-39.66259 35.0489,-65.04498 2.1014,-13.26757 1.3615,-36.84448 -1.4847,-47.31178 -8.8208,-32.4395 -30.9089,-48.71369 -70.8752,-52.2199 -12.5763,-1.1033 -190.9377,-1.51672 -193.7201,-0.44901 -1.4272,0.54764 -1.5818,9.96592 -1.5818,96.33333 0,52.64949 0.324,96.05038 0.7201,96.44643 0.396,0.39604 41.0085,0.54453 90.25,0.32996 77.0537,-0.33575 90.519,-0.61087 96.6274,-1.97433 z"
       id="path3692"
       inkscape:connector-curvature="0" />
  </g>
  <path
     style="fill:#008080;fill-opacity:0.21274689;stroke-width:3.78500247"
     d="m 322.51553,1189.6043 c 0,-1.9511 7.60242,-25.3708 16.89427,-52.0438 9.29185,-26.6729 61.11741,-177.09166 115.16791,-334.26389 54.0505,-157.17223 107.09938,-310.89064 117.88641,-341.59647 l 19.61276,-55.82879 h 59.742 c 53.38913,0 60.01685,0.70436 62.32677,6.62375 12.89822,33.05289 266.96031,772.5617 266.96031,777.0522 0,2.1408 -25.74578,3.5893 -63.39879,3.5671 l -63.39879,-0.038 -38.23988,-108.7813 -38.23985,-108.78136 h -125.8075 -125.8075 l -37.15572,104.83166 c -20.43564,57.6575 -38.2646,106.6259 -39.61989,108.8189 -3.14374,5.087 -126.92251,5.5157 -126.92251,0.4399 z M 728.78286,845.87789 c 2.61562,-4.31986 -71.31936,-218.6803 -75.16353,-217.9224 -3.07416,0.6061 -74.02472,188.52977 -79.66711,211.01083 l -2.44718,9.75032 h 77.7795 c 42.77872,0 78.55297,-1.27744 79.49832,-2.83875 z"
     id="path9"
     inkscape:connector-curvature="0" />
  <path
     style="fill:#00ff00;fill-opacity:0.21274689;stroke-width:3.78500247"
     d="M 1109.796,799.50529 V 405.38982 l 173.1639,1.35746 c 169.1331,1.32586 173.7365,1.55961 197.7664,10.04186 89.5548,31.61179 143.8301,102.47745 143.8301,187.79484 0,64.2174 -29.6935,119.5292 -85.5749,159.40534 -13.3046,9.49396 -24.1902,17.73936 -24.1902,18.32312 0,0.58376 11.2186,7.62228 24.9302,15.64111 48.6319,28.441 88.9759,82.43712 99.5772,133.27319 14.4657,69.36766 -9.4955,146.62766 -62.0031,199.92196 -28.0164,28.436 -50.3447,41.9629 -87.3129,52.8958 -19.7282,5.8344 -44.5626,6.8354 -201.3453,8.1158 l -178.8414,1.4605 z m 353.8853,264.49961 c 20.7598,-5.7632 45.3056,-30.9773 51.0982,-52.4895 16.6667,-61.89529 -19.6054,-138.07123 -74.68,-156.837 -14.1109,-4.80806 -36.0439,-5.96176 -113.3401,-5.96176 h -95.8433 v 109.76507 109.76509 l 108.8188,-0.023 c 68.0291,-0.011 114.4893,-1.5953 123.9464,-4.2208 z m -26.4825,-349.2404 c 40.772,-19.33163 64.1366,-57.32438 64.2667,-104.50302 0.1281,-46.43031 -17.6688,-70.35559 -58.9139,-79.20108 -10.717,-2.29839 -60.8907,-4.06897 -115.3042,-4.06897 h -96.3313 v 98.41006 98.41007 l 93.6788,-0.0371 c 90.6775,-0.0359 94.2852,-0.32445 112.6039,-9.01007 z"
     id="path11"
     inkscape:connector-curvature="0" />
  <path
     style="fill:#00ff00;fill-opacity:0.21274689;stroke-width:3.78500247"
     d="m 324.75089,1189.9216 c -2.06532,-3.3418 240.07542,-714.46498 264.71731,-777.4265 2.31162,-5.9063 8.80058,-6.61747 59.90875,-6.56579 31.52398,0.0319 59.18268,1.30931 61.46378,2.83875 2.28111,1.52944 10.19797,20.66493 17.59307,42.52332 7.3951,21.85839 46.18684,134.27296 86.20385,249.81016 133.99855,386.88076 166.69196,485.78076 161.64459,488.98736 -2.55132,1.6209 -31.03918,2.9675 -63.30633,2.9924 l -58.66753,0.045 -38.41271,-108.8062 -38.41266,-108.80624 -124.80833,-0.99667 -124.80833,-0.9967 -8.03847,21.81422 c -4.42117,11.99779 -21.56435,59.88989 -38.09597,106.42689 -16.53161,46.537 -31.15185,85.7118 -32.48942,87.0551 -4.14166,4.1593 -121.95759,5.2047 -124.4916,1.1046 z M 726.15046,845.81994 c 4.89163,-3.15079 -67.08871,-219.01288 -72.64563,-217.85731 -2.96143,0.61583 -81.17914,210.19665 -81.17914,217.51583 0,3.93768 147.73255,4.26562 153.82477,0.3414 z"
     id="path13"
     inkscape:connector-curvature="0" />
  <path
     style="fill:#00ffff;fill-opacity:0.21274689;stroke-width:3.78500247"
     d="m 332.92429,1190.7945 c -3.64307,-1.0905 -6.62376,-3.1657 -6.62376,-4.6115 0,-3.49 67.03511,-203.15294 126.00927,-375.31639 104.55645,-305.23199 136.17637,-395.74487 139.82887,-400.26401 4.5305,-5.60545 99.26907,-6.76513 113.36195,-1.38764 7.63485,2.91326 19.91858,35.67448 95.43952,254.54142 93.96496,272.31955 170.60346,498.90982 174.09702,514.73752 1.93577,8.77 0.80333,10.2228 -9.58873,12.3012 -6.48106,1.2962 -34.13891,2.3365 -61.4619,2.3117 l -49.67815,-0.045 -38.00484,-108.7737 -38.00486,-108.77378 -125.34627,-0.99686 -125.34628,-0.99681 -9.64994,25.59933 c -5.30747,14.07972 -22.43329,61.21822 -38.05738,104.75232 -15.6241,43.5341 -30.0626,80.8081 -32.08557,82.831 -3.90217,3.9022 -103.65364,7.4544 -114.88895,4.0913 z M 726.15391,845.81994 c 4.87784,-3.13947 -66.84167,-219.06537 -72.34081,-217.79644 -4.3115,0.99489 -81.48741,206.77334 -81.48741,217.27445 0,4.07372 147.5319,4.57436 153.82822,0.52199 z"
     id="path12"
     inkscape:connector-curvature="0" />
  <path
     style="fill:#00ffff;fill-opacity:0.21274689;stroke-width:3.78500247"
     d="M 1109.796,799.5618 V 404.86665 l 173.1639,2.07786 c 186.1037,2.23314 185.2515,2.14557 228.9047,23.52043 46.3386,22.68983 82.5704,62.08916 101.8691,110.77498 12.2814,30.98294 12.2189,95.09736 -0.1237,126.68812 -16.7558,42.88671 -41.0585,71.99448 -89.5286,107.23021 l -10.756,7.81918 22.4967,12.73002 c 12.3731,7.00154 33.7952,24.13469 47.6046,38.07364 67.6416,68.27626 78.0699,158.36072 28.9992,250.50801 -15.8765,29.8137 -56.7763,70.9173 -83.6472,84.064 -42.4189,20.7536 -47.6996,21.2742 -240.1414,23.6738 l -178.8413,2.2301 z m 353.8853,264.4431 c 20.7965,-5.7734 45.2989,-30.9713 51.1463,-52.5982 12.1891,-45.08175 -5.6299,-105.34523 -40.1279,-135.71155 -28.4858,-25.0742 -38.9284,-26.97851 -147.9403,-26.97851 h -95.8433 v 109.76507 109.76509 l 108.8188,-0.023 c 68.0291,-0.011 114.4893,-1.5953 123.9464,-4.2208 z m -26.4825,-349.2404 c 40.6461,-19.27195 63.7809,-56.96878 64.1341,-104.50302 0.3444,-46.35982 -17.4511,-70.33735 -58.7813,-79.20108 -10.717,-2.29839 -60.8907,-4.06897 -115.3042,-4.06897 h -96.3313 v 98.41006 98.41007 l 93.6788,-0.0371 c 90.6775,-0.0359 94.2852,-0.32445 112.6039,-9.01007 z"
     id="path14"
     inkscape:connector-curvature="0" />
  <path
     style="fill:#00ffff;fill-opacity:0.21274689;stroke-width:3.78500247"
     d="m 66.887063,1592.1239 c -21.754302,-7.7241 -40.00306,-24.091 -52.976495,-47.5136 L 2.6828193,1524.3396 V 799.51161 74.683633 L 13.702041,54.795984 C 26.358921,31.952664 43.000613,17.946606 69.40775,7.9126837 87.272553,1.1245932 120.13542,0.87608435 999.92957,0.87608435 c 909.34793,0 912.06323,0.0225208 932.68553,7.73832365 26.7987,10.026669 48.9234,32.204641 59.0031,59.145217 7.8204,20.901726 7.8229,21.178558 6.7921,738.744775 l -1.0312,717.8352 -11.2277,20.2707 c -6.1753,11.149 -17.151,25.1533 -24.3906,31.1207 -29.2478,24.1085 43.1842,22.4456 -963.35034,22.1173 -785.363,-0.2562 -918.425358,-1.0738 -931.523397,-5.7244 z M 1802.4515,799.51161 V 197.69621 H 1000.031 197.61045 v 601.8154 601.81539 h 802.42055 802.4205 z"
     id="path15"
     inkscape:connector-curvature="0" />
</svg>
